<svg xmlns="http://www.w3.org/2000/svg" width="200" height="200" viewBox="0 0 200 200">
  <rect width="200" height="200" fill="#faf8f5"/>
  <g fill="#2c2825">
    <rect x="20" y="20" width="50" height="50"/><rect x="30" y="30" width="30" height="30" fill="#faf8f5"/>
    <rect x="130" y="20" width="50" height="50"/><rect x="140" y="30" width="30" height="30" fill="#faf8f5"/>
    <rect x="20" y="130" width="50" height="50"/><rect x="30" y="140" width="30" height="30" fill="#faf8f5"/>
    <rect x="80" y="40" width="10" height="10"/><rect x="100" y="40" width="10" height="10"/><rect x="80" y="60" width="20" height="10"/>
    <rect x="80" y="80" width="10" height="30"/><rect x="100" y="100" width="30" height="10"/><rect x="140" y="80" width="10" height="40"/>
    <rect x="80" y="130" width="40" height="10"/><rect x="130" y="130" width="10" height="10"/><rect x="150" y="150" width="30" height="30"/>
    <rect x="40" y="90" width="20" height="10"/><rect x="20" y="100" width="10" height="20"/>
  </g>
  <text x="100" y="190" font-family="sans-serif" font-size="10" fill="#9a7b3c" text-anchor="middle">QR Placeholder</text>
</svg>
